<?xml version="1.0" standalone="no"?>
<!DOCTYPE svg PUBLIC "-//W3C//DTD SVG 20010904//EN"
 "http://www.w3.org/TR/2001/REC-SVG-20010904/DTD/svg10.dtd">
<svg version="1.0" xmlns="http://www.w3.org/2000/svg"
 width="512.000000pt" height="512.000000pt" viewBox="0 0 512.000000 512.000000"
 preserveAspectRatio="xMidYMid meet">

<g transform="translate(0.000000,512.000000) scale(0.100000,-0.100000)"
fill="#000000" stroke="none">
<path d="M821 4354 c-175 -47 -330 -204 -376 -379 -12 -48 -15 -130 -15 -436
0 -364 1 -377 20 -402 12 -15 38 -31 58 -37 21 -5 146 -10 287 -10 249 0 250
0 219 19 -17 10 -37 33 -44 51 -13 30 -10 48 29 206 55 221 87 274 205 337 40
22 47 22 476 22 434 0 435 0 482 -23 56 -28 122 -92 148 -143 29 -56 43 -158
38 -285 l-3 -116 -37 -34 -38 -34 290 0 290 0 -38 34 -37 34 -3 116 c-5 127 9
229 38 285 26 51 92 115 148 143 47 23 48 23 482 23 429 0 436 0 476 -22 118
-63 150 -116 205 -337 39 -158 42 -176 29 -206 -7 -18 -27 -41 -44 -51 -31
-19 -30 -19 219 -19 141 0 266 5 287 10 20 6 46 22 58 37 19 25 20 38 20 402
0 306 -3 388 -15 436 -47 178 -202 333 -380 380 -87 22 -3390 22 -3474 -1z"/>
<path d="M406 2864 c-133 -32 -278 -146 -343 -270 -64 -121 -64 -109 -61 -990
l3 -796 33 -29 c46 -41 99 -40 141 2 l31 31 0 179 0 179 2350 0 2350 0 0 -179
0 -179 31 -31 c42 -42 95 -43 141 -2 l33 29 3 796 c3 881 3 869 -61 990 -41
78 -145 182 -223 223 -126 67 26 63 -2279 62 -1769 -1 -2099 -3 -2149 -15z
m4504 -1369 l0 -105 -2350 0 -2350 0 0 105 0 105 2350 0 2350 0 0 -105z"/>
</g>
</svg>
