<?xml version="1.0" standalone="no"?>
<!DOCTYPE svg PUBLIC "-//W3C//DTD SVG 20010904//EN"
 "http://www.w3.org/TR/2001/REC-SVG-20010904/DTD/svg10.dtd">
<svg version="1.0" xmlns="http://www.w3.org/2000/svg"
 width="512.000000pt" height="512.000000pt" viewBox="0 0 512.000000 512.000000"
 preserveAspectRatio="xMidYMid meet">

<g transform="translate(0.000000,512.000000) scale(0.100000,-0.100000)"
fill="#000000" stroke="none">
<path d="M170 2645 l0 -2475 -85 0 -85 0 0 -85 0 -85 2560 0 2560 0 0 85 0 85
-80 0 -80 0 0 1378 c0 1301 -1 1380 -17 1394 -10 8 -309 190 -665 403 l-648
388 0 693 0 694 -1730 0 -1730 0 0 -2475z m3300 -90 l0 -2395 -535 0 -535 0 0
580 0 580 -500 0 -500 0 0 -575 0 -575 -535 0 -535 0 0 2390 0 2390 1570 0
1570 0 0 -2395z m745 633 l570 -343 3 -1343 2 -1342 -577 2 -578 3 -3 1683
c-1 925 1 1682 6 1682 4 0 264 -154 577 -342z m-1985 -2533 l0 -495 -330 0
-330 0 0 495 0 495 330 0 330 0 0 -495z"/>
<path d="M500 4290 l0 -330 328 2 327 3 3 328 2 327 -330 0 -330 0 0 -330z
m490 5 l0 -165 -165 0 -165 0 0 165 0 165 165 0 165 0 0 -165z"/>
<path d="M1570 4290 l0 -330 330 0 330 0 0 330 0 330 -330 0 -330 0 0 -330z
m490 5 l0 -165 -165 0 -165 0 0 165 0 165 165 0 165 0 0 -165z"/>
<path d="M2642 4293 l3 -328 328 -3 327 -2 0 330 0 330 -330 0 -330 0 2 -327z
m498 2 l0 -165 -165 0 -165 0 0 165 0 165 165 0 165 0 0 -165z"/>
<path d="M500 3140 l0 -330 330 0 330 0 0 330 0 330 -330 0 -330 0 0 -330z
m490 -5 l0 -165 -165 0 -165 0 0 165 0 165 165 0 165 0 0 -165z"/>
<path d="M1570 3140 l0 -330 330 0 330 0 0 330 0 330 -330 0 -330 0 0 -330z
m490 -5 l0 -165 -162 2 -163 3 -3 163 -2 162 165 0 165 0 0 -165z"/>
<path d="M2640 3140 l0 -330 330 0 330 0 0 330 0 330 -330 0 -330 0 0 -330z
m500 -5 l0 -165 -165 0 -165 0 0 165 0 165 165 0 165 0 0 -165z"/>
<path d="M500 1980 l0 -330 330 0 330 0 0 330 0 330 -330 0 -330 0 0 -330z
m490 5 l0 -165 -165 0 -165 0 0 165 0 165 165 0 165 0 0 -165z"/>
<path d="M1570 1980 l0 -330 330 0 330 0 0 330 0 330 -330 0 -330 0 0 -330z
m490 5 l0 -165 -165 0 -165 0 0 158 c0 87 3 162 7 165 3 4 78 7 165 7 l158 0
0 -165z"/>
<path d="M2640 1980 l0 -330 330 0 330 0 0 330 0 330 -330 0 -330 0 0 -330z
m500 5 l0 -165 -165 0 -165 0 0 165 0 165 165 0 165 0 0 -165z"/>
<path d="M500 825 l0 -335 328 2 327 3 0 330 0 330 -327 3 -328 2 0 -335z
m490 0 l0 -165 -165 0 -165 0 0 165 0 165 165 0 165 0 0 -165z"/>
<path d="M2645 1147 c-3 -7 -4 -156 -3 -332 l3 -320 328 -3 327 -2 0 335 0
335 -325 0 c-253 0 -327 -3 -330 -13z m495 -322 l0 -165 -165 0 -165 0 0 165
0 165 165 0 165 0 0 -165z"/>
<path d="M3800 2560 l0 -80 80 0 80 0 0 80 0 80 -80 0 -80 0 0 -80z"/>
<path d="M4210 2560 l0 -80 85 0 85 0 0 80 0 80 -85 0 -85 0 0 -80z"/>
<path d="M3800 2065 l0 -85 80 0 80 0 0 85 0 85 -80 0 -80 0 0 -85z"/>
<path d="M4217 2144 c-4 -4 -7 -43 -7 -86 l0 -78 85 0 86 0 -3 83 -3 82 -75 3
c-42 1 -79 0 -83 -4z"/>
<path d="M3800 1570 l0 -80 80 0 80 0 0 80 0 80 -80 0 -80 0 0 -80z"/>
<path d="M4210 1570 l0 -80 85 0 85 0 0 80 0 80 -85 0 -85 0 0 -80z"/>
<path d="M3800 1075 l0 -85 80 0 80 0 0 85 0 85 -80 0 -80 0 0 -85z"/>
<path d="M4217 1154 c-4 -4 -7 -43 -7 -86 l0 -78 85 0 86 0 -3 83 -3 82 -75 3
c-42 1 -79 0 -83 -4z"/>
<path d="M3800 575 l0 -85 80 0 80 0 0 85 0 85 -80 0 -80 0 0 -85z"/>
<path d="M4212 578 l3 -83 80 0 80 0 3 83 3 82 -86 0 -86 0 3 -82z"/>
</g>
</svg>
