<?xml version="1.0" standalone="no"?>
<!DOCTYPE svg PUBLIC "-//W3C//DTD SVG 20010904//EN"
 "http://www.w3.org/TR/2001/REC-SVG-20010904/DTD/svg10.dtd">
<svg version="1.0" xmlns="http://www.w3.org/2000/svg"
 width="900.000000pt" height="900.000000pt" viewBox="0 0 900.000000 900.000000"
 preserveAspectRatio="xMidYMid meet">

<g transform="translate(0.000000,900.000000) scale(0.100000,-0.100000)"
fill="#000000" stroke="none">
<path d="M1725 8954 c-82 -63 -1631 -1614 -1685 -1687 -52 -69 -51 -71 45
-177 168 -188 1231 -1259 3710 -3736 2579 -2578 3274 -3266 3364 -3328 38 -27
44 -28 68 -15 14 8 78 62 142 120 180 165 1552 1547 1595 1607 46 63 45 67
-38 162 -134 152 -1215 1241 -3531 3556 -3335 3333 -3548 3544 -3598 3544 -7
0 -39 -21 -72 -46z m3198 -3415 c3806 -3805 3721 -3720 3712 -3750 -8 -24
-1358 -1379 -1412 -1417 l-32 -23 -268 265 -268 265 315 318 c444 447 460 465
460 501 0 44 -9 61 -41 78 -53 27 -60 21 -552 -466 -164 -162 -301 -296 -305
-298 -4 -1 -59 50 -122 113 l-115 115 161 163 c209 211 274 284 274 307 0 23
-53 80 -75 80 -27 0 -92 -57 -293 -254 l-183 -180 -114 114 c-63 63 -114 118
-113 121 2 4 87 94 189 200 269 280 260 265 210 318 -60 64 -82 50 -388 -253
l-143 -141 -115 115 -114 114 207 211 c114 116 213 223 221 238 13 25 13 30
-6 55 -11 15 -32 33 -47 40 -25 13 -31 11 -69 -14 -23 -15 -129 -113 -235
-218 l-193 -190 -114 114 -114 114 322 326 c289 291 467 480 467 496 0 32 -56
84 -92 84 -23 0 -154 -121 -483 -444 l-340 -335 -113 112 -112 112 133 135
c231 234 297 309 297 336 0 30 -50 84 -78 84 -32 0 -95 -53 -291 -245 l-187
-184 -114 114 -114 114 200 203 c180 182 234 246 234 277 0 17 -51 71 -67 71
-41 0 -105 -51 -289 -232 l-200 -197 -114 114 -114 114 195 198 c196 198 229
240 229 288 0 34 -33 65 -69 65 -38 0 -93 -46 -311 -259 -91 -88 -167 -161
-170 -161 -3 0 -57 52 -120 115 l-114 114 350 353 c356 359 434 445 434 479 0
28 -36 59 -69 59 -45 0 -106 -54 -484 -429 l-348 -345 -116 116 -117 117 184
188 c242 248 272 296 213 343 -54 42 -94 16 -340 -224 l-184 -179 -114 113
-115 114 188 191 c208 210 242 250 242 287 0 35 -35 68 -71 68 -45 0 -74 -24
-287 -234 l-192 -190 -115 114 -114 114 183 186 c190 193 246 260 246 293 0
19 -60 87 -77 87 -16 0 -148 -117 -319 -283 l-161 -156 -111 112 -112 112 196
195 c242 240 556 572 574 605 10 20 10 30 0 55 -11 26 -53 60 -74 60 -16 0
-204 -177 -497 -467 l-325 -322 -113 113 -113 113 174 179 c96 98 193 203 215
232 38 48 41 55 31 82 -9 27 -54 70 -74 70 -16 0 -108 -83 -284 -257 l-186
-182 -114 114 -114 114 170 173 c259 263 283 300 229 353 -30 30 -68 32 -103
5 -15 -12 -115 -108 -222 -215 l-196 -194 -119 119 -119 119 200 203 c111 112
209 218 218 237 35 67 -27 131 -95 96 -18 -10 -124 -108 -236 -218 l-204 -201
-116 116 -117 117 361 365 c366 370 428 442 417 480 -16 55 -75 70 -134 35
-19 -12 -201 -186 -403 -388 l-369 -366 -264 268 -265 267 21 30 c21 30 1069
1084 1291 1298 69 67 133 122 143 122 9 0 1410 -1393 3119 -3101z"/>
</g>
</svg>
